PathFileType	4	(X/Y/Z)	 1.9Hzlow3min.trc
DataRate	CameraRate	NumFrames	NumMarkers	Units	OrigDataRate	OrigDataStartFrame	OrigNumFrames
200	200	11	35	m	200	751	1000
Frame#	Time	C7			LSH			RSH			MAN			RASI			LASI			HIPR			HIPL			RPSI			LPSI			COX			RTHI1			RTHI2			RTHI3			RTHI4			RSHA1			RSHA2			RSHA3			RSHA4			RHEEL			RMET5			RMET1			RTOE			LTHI1			LTHI2			LTHI3			LTHI4			LSHA1			LSHA2			LSHA3			LSHA4			LHEEL			LMET5			LMET1			LTOE			
		X1	Y1	Z1	X2	Y2	Z2	X3	Y3	Z3	X4	Y4	Z4	X5	Y5	Z5	X6	Y6	Z6	X7	Y7	Z7	X8	Y8	Z8	X9	Y9	Z9	X10	Y10	Z10	X11	Y11	Z11	X12	Y12	Z12	X13	Y13	Z13	X14	Y14	Z14	X15	Y15	Z15	X16	Y16	Z16	X17	Y17	Z17	X18	Y18	Z18	X19	Y19	Z19	X20	Y20	Z20	X21	Y21	Z21	X22	Y22	Z22	X23	Y23	Z23	X24	Y24	Z24	X25	Y25	Z25	X26	Y26	Z26	X27	Y27	Z27	X28	Y28	Z28	X29	Y29	Z29	X30	Y30	Z30	X31	Y31	Z31	X32	Y32	Z32	X33	Y33	Z33	X34	Y34	Z34	X35	Y35	Z35	
751	3.7550	-0.307564	1.344625	-0.572732	-0.239295	1.310110	-0.747435	-0.230837	1.321142	-0.398779	-0.187370	1.307021	-0.575073	-0.160454	0.911731	-0.497441	-0.157232	0.918084	-0.669675	-0.219489	0.964455	-0.447648	-0.204700	0.976576	-0.698902	-0.301611	0.949943	-0.512145	-0.297869	0.958669	-0.627885	-0.305720	0.961871	-0.570225	-0.227897	0.731108	-0.408924	-0.218105	0.670018	-0.407276	-0.149524	0.687984	-0.426983	-0.167208	0.745740	-0.426434	-0.250425	0.315951	-0.386438	-0.274382	0.279953	-0.389465	-0.221091	0.253383	-0.402682	-0.202401	0.289262	-0.402944	-0.389929	0.087997	-0.442946	-0.243580	0.031307	-0.374764	-0.210710	0.035640	-0.450480	-0.187021	0.027469	-0.442535	-0.254109	0.693581	-0.744071	-0.243009	0.635445	-0.741006	-0.172476	0.649415	-0.750432	-0.191328	0.707611	-0.754194	-0.293849	0.291181	-0.732967	-0.313603	0.256695	-0.725713	-0.256028	0.231394	-0.728004	-0.243394	0.272743	-0.736273	-0.394974	0.089018	-0.663499	-0.250895	0.025876	-0.727571	-0.213125	0.040193	-0.659415	-0.190684	0.028557	-0.667542	
752	3.7600	-0.307572	1.338382	-0.572643	-0.238977	1.303424	-0.747615	-0.230631	1.314669	-0.398579	-0.187257	1.300657	-0.575030	-0.161248	0.905444	-0.497223	-0.158022	0.911983	-0.669674	-0.220334	0.957922	-0.447536	-0.205384	0.970356	-0.698757	-0.302692	0.943553	-0.511999	-0.298880	0.952522	-0.627743	-0.306659	0.955584	-0.570109	-0.228759	0.724208	-0.409248	-0.218400	0.663229	-0.407629	-0.149821	0.681862	-0.426648	-0.168033	0.739470	-0.426132	-0.250079	0.311847	-0.387441	-0.274362	0.276090	-0.390487	-0.221185	0.248878	-0.402915	-0.202154	0.284573	-0.403241	-0.391456	0.084209	-0.443638	-0.244230	0.030819	-0.374340	-0.211048	0.035419	-0.450851	-0.187169	0.027395	-0.442499	-0.253858	0.686887	-0.743908	-0.242289	0.628891	-0.740754	-0.171907	0.643375	-0.750416	-0.191217	0.701385	-0.754296	-0.292230	0.286537	-0.732437	-0.312354	0.252263	-0.725209	-0.254939	0.226462	-0.726649	-0.241894	0.267688	-0.735047	-0.396263	0.085462	-0.662232	-0.251202	0.025784	-0.727416	-0.213454	0.039751	-0.658380	-0.190803	0.028311	-0.666804	
753	3.7650	-0.307599	1.332136	-0.572558	-0.238646	1.296638	-0.747829	-0.230411	1.308147	-0.398335	-0.187147	1.294244	-0.574990	-0.162064	0.899115	-0.496974	-0.158896	0.905856	-0.669674	-0.221213	0.951337	-0.447386	-0.206099	0.964081	-0.698648	-0.303862	0.937093	-0.511812	-0.299996	0.946317	-0.627621	-0.307678	0.949242	-0.569964	-0.229521	0.717295	-0.409508	-0.218569	0.656430	-0.407902	-0.150010	0.675758	-0.426216	-0.168772	0.733216	-0.425756	-0.249531	0.307806	-0.388413	-0.274113	0.272264	-0.391470	-0.221049	0.244458	-0.403145	-0.201711	0.279979	-0.403544	-0.392776	0.080605	-0.444350	-0.244876	0.030400	-0.373952	-0.211321	0.035215	-0.451252	-0.187259	0.027315	-0.442499	-0.253557	0.680140	-0.743784	-0.241527	0.622279	-0.740488	-0.171295	0.637260	-0.750365	-0.191050	0.695094	-0.754398	-0.290545	0.281979	-0.731712	-0.310991	0.247907	-0.724469	-0.253737	0.221655	-0.725194	-0.240326	0.262753	-0.733731	-0.397293	0.082179	-0.660773	-0.251495	0.025739	-0.727225	-0.213641	0.039332	-0.657470	-0.190811	0.028066	-0.666204	
754	3.7700	-0.307635	1.325935	-0.572491	-0.238301	1.289795	-0.748084	-0.230177	1.301655	-0.398025	-0.187030	1.287818	-0.574954	-0.162894	0.892774	-0.496696	-0.159862	0.899748	-0.669687	-0.222130	0.944739	-0.447190	-0.206869	0.957788	-0.698588	-0.305123	0.930601	-0.511586	-0.301226	0.940094	-0.627515	-0.308786	0.942891	-0.569786	-0.230155	0.710432	-0.409688	-0.218589	0.649691	-0.408104	-0.150068	0.669733	-0.425711	-0.169403	0.727030	-0.425301	-0.248722	0.303810	-0.389317	-0.273576	0.268473	-0.392372	-0.220639	0.240129	-0.403427	-0.201017	0.275493	-0.403900	-0.393898	0.077219	-0.445091	-0.245473	0.030030	-0.373632	-0.211481	0.035030	-0.451589	-0.187269	0.027238	-0.442496	-0.253225	0.673404	-0.743704	-0.240740	0.615683	-0.740208	-0.170652	0.631146	-0.750270	-0.190847	0.688805	-0.754498	-0.288808	0.277641	-0.730768	-0.309543	0.243766	-0.723479	-0.252451	0.217075	-0.723663	-0.238713	0.258066	-0.732347	-0.398064	0.079194	-0.659114	-0.251761	0.025737	-0.726990	-0.213691	0.038940	-0.656667	-0.190710	0.027842	-0.665709	
755	3.7750	-0.307671	1.319833	-0.572455	-0.237947	1.282950	-0.748378	-0.229943	1.295265	-0.397648	-0.186894	1.281424	-0.574924	-0.163731	0.886475	-0.496389	-0.160918	0.893707	-0.669728	-0.223078	0.938158	-0.446946	-0.207722	0.951524	-0.698592	-0.306473	0.924120	-0.511312	-0.302577	0.933892	-0.627412	-0.309993	0.936568	-0.569580	-0.230648	0.703688	-0.409782	-0.218453	0.643083	-0.408252	-0.149998	0.663865	-0.425163	-0.169918	0.720970	-0.424772	-0.247588	0.299861	-0.390132	-0.272700	0.264707	-0.393190	-0.219916	0.235905	-0.403807	-0.200026	0.271116	-0.404319	-0.394813	0.074080	-0.445898	-0.245961	0.029745	-0.373425	-0.211545	0.034849	-0.451898	-0.187205	0.027156	-0.442507	-0.252870	0.666793	-0.743663	-0.239927	0.609220	-0.739923	-0.169981	0.625160	-0.750125	-0.190624	0.682639	-0.754589	-0.287023	0.273652	-0.729614	-0.308031	0.239978	-0.722257	-0.251117	0.212859	-0.722095	-0.237062	0.253733	-0.730919	-0.398591	0.076498	-0.657251	-0.251994	0.025772	-0.726712	-0.213619	0.038584	-0.655967	-0.190514	0.027641	-0.665299	
756	3.7800	-0.307692	1.313890	-0.572458	-0.237602	1.276165	-0.748707	-0.229732	1.289032	-0.397216	-0.186725	1.275110	-0.574900	-0.164568	0.880262	-0.496058	-0.162055	0.887792	-0.669816	-0.224061	0.931628	-0.446654	-0.208694	0.945348	-0.698672	-0.307905	0.917708	-0.510985	-0.304044	0.927774	-0.627258	-0.311290	0.930321	-0.569326	-0.231009	0.697138	-0.409795	-0.218169	0.636674	-0.408374	-0.149809	0.658224	-0.424618	-0.170333	0.715130	-0.424185	-0.246089	0.295990	-0.390825	-0.271467	0.261016	-0.393902	-0.218863	0.231803	-0.404316	-0.198712	0.266863	-0.404823	-0.395554	0.071224	-0.446781	-0.246373	0.029538	-0.373308	-0.211524	0.034678	-0.452196	-0.187081	0.027077	-0.442539	-0.252492	0.660431	-0.743637	-0.239078	0.603010	-0.739632	-0.169273	0.619455	-0.749920	-0.190380	0.676738	-0.754641	-0.285185	0.270111	-0.728275	-0.306467	0.236651	-0.720838	-0.249758	0.209071	-0.720524	-0.235385	0.249804	-0.729474	-0.398896	0.074079	-0.655221	-0.252198	0.025834	-0.726399	-0.213445	0.038265	-0.655365	-0.190239	0.027467	-0.664961	
757	3.7850	-0.307686	1.308169	-0.572503	-0.237259	1.269509	-0.749060	-0.229562	1.282992	-0.396752	-0.186518	1.268929	-0.574880	-0.165407	0.874190	-0.495707	-0.163252	0.882060	-0.669964	-0.225099	0.925190	-0.446308	-0.209813	0.939333	-0.698844	-0.309400	0.911413	-0.510606	-0.305611	0.921802	-0.627055	-0.312669	0.924220	-0.569017	-0.231257	0.690855	-0.409754	-0.217772	0.630550	-0.408494	-0.149529	0.652884	-0.424119	-0.170668	0.709576	-0.423585	-0.244236	0.292237	-0.391387	-0.269886	0.257459	-0.394501	-0.217515	0.227852	-0.404965	-0.197101	0.262754	-0.405442	-0.396152	0.068681	-0.447697	-0.246655	0.029448	-0.373330	-0.211436	0.034517	-0.452484	-0.186913	0.027002	-0.442594	-0.252091	0.654436	-0.743619	-0.238172	0.597181	-0.739335	-0.168511	0.614187	-0.749649	-0.190115	0.671249	-0.754643	-0.283296	0.267049	-0.726796	-0.304869	0.233810	-0.719271	-0.248407	0.205723	-0.718990	-0.233685	0.246299	-0.728041	-0.399012	0.071917	-0.653085	-0.252366	0.025923	-0.726065	-0.213189	0.037985	-0.654866	-0.189902	0.027324	-0.664703	
758	3.7900	-0.307653	1.302723	-0.572601	-0.236925	1.263063	-0.749427	-0.229436	1.277190	-0.396288	-0.186277	1.262930	-0.574861	-0.166242	0.868325	-0.495352	-0.164474	0.876581	-0.670173	-0.226193	0.918889	-0.445910	-0.211117	0.933538	-0.699096	-0.310928	0.905310	-0.510179	-0.307239	0.916042	-0.626798	-0.314102	0.918335	-0.568656	-0.231434	0.684927	-0.409684	-0.217313	0.624795	-0.408633	-0.149205	0.647917	-0.423688	-0.170952	0.704372	-0.423006	-0.242083	0.288642	-0.391857	-0.268026	0.254093	-0.394999	-0.215938	0.224097	-0.405723	-0.195240	0.258828	-0.406158	-0.396631	0.066444	-0.448610	-0.246799	0.029464	-0.373503	-0.211318	0.034373	-0.452760	-0.186720	0.026930	-0.442674	-0.251652	0.648932	-0.743591	-0.237181	0.591850	-0.739050	-0.167677	0.609491	-0.749320	-0.189831	0.666301	-0.754574	-0.281376	0.264426	-0.725231	-0.303264	0.231414	-0.717627	-0.247088	0.202761	-0.717520	-0.231988	0.243181	-0.726648	-0.398989	0.069967	-0.650916	-0.252494	0.026027	-0.725730	-0.212872	0.037746	-0.654465	-0.189525	0.027206	-0.664520	
759	3.7950	-0.307590	1.297597	-0.572737	-0.236616	1.256905	-0.749779	-0.229348	1.271638	-0.395879	-0.185925	1.257201	-0.574845	-0.167076	0.862735	-0.494996	-0.165688	0.871418	-0.670435	-0.227355	0.912787	-0.445461	-0.212620	0.928028	-0.699422	-0.312447	0.899470	-0.509703	-0.308884	0.910567	-0.626464	-0.315554	0.912734	-0.568235	-0.231587	0.679427	-0.409626	-0.216839	0.619466	-0.408832	-0.148890	0.643369	-0.423323	-0.171227	0.699579	-0.422481	-0.239704	0.285287	-0.392248	-0.265975	0.250994	-0.395417	-0.214218	0.220590	-0.406549	-0.193217	0.255136	-0.406922	-0.396997	0.064515	-0.449525	-0.246833	0.029573	-0.373786	-0.211190	0.034252	-0.453022	-0.186518	0.026864	-0.442768	-0.251167	0.643962	-0.743522	-0.236088	0.587057	-0.738784	-0.166757	0.605426	-0.748942	-0.189517	0.661955	-0.754410	-0.279461	0.262172	-0.723660	-0.301682	0.229398	-0.715980	-0.245828	0.200129	-0.716141	-0.230325	0.240386	-0.725320	-0.398881	0.068204	-0.648809	-0.252591	0.026139	-0.725412	-0.212541	0.037544	-0.654134	-0.189145	0.027107	-0.664394	
760	3.8000	-0.307499	1.292827	-0.572897	-0.236335	1.251110	-0.750097	-0.229269	1.266353	-0.395549	-0.185480	1.251790	-0.574830	-0.167900	0.857479	-0.494646	-0.166858	0.866638	-0.670724	-0.228590	0.906963	-0.444971	-0.214316	0.922864	-0.699802	-0.313917	0.893983	-0.509196	-0.310497	0.905457	-0.626056	-0.316983	0.907494	-0.567747	-0.231750	0.674411	-0.409608	-0.216395	0.614610	-0.409081	-0.148614	0.639276	-0.423024	-0.171519	0.695235	-0.422047	-0.237213	0.282232	-0.392572	-0.263839	0.248246	-0.395754	-0.212454	0.217374	-0.407371	-0.191124	0.251729	-0.407685	-0.397279	0.062899	-0.450406	-0.246842	0.029703	-0.374086	-0.211070	0.034164	-0.453243	-0.186324	0.026813	-0.442850	-0.250624	0.639494	-0.743390	-0.234892	0.582768	-0.738541	-0.165754	0.601946	-0.748532	-0.189167	0.658179	-0.754139	-0.277599	0.260191	-0.722153	-0.300156	0.227659	-0.714407	-0.244640	0.197744	-0.714870	-0.228728	0.237842	-0.724079	-0.398742	0.066616	-0.646868	-0.252670	0.026250	-0.725118	-0.212235	0.037376	-0.653844	-0.188794	0.027025	-0.664308	
761	3.8050	-0.307392	1.288432	-0.573070	-0.236084	1.245741	-0.750360	-0.229185	1.261374	-0.395299	-0.184963	1.246739	-0.574817	-0.168698	0.852626	-0.494316	-0.167950	0.862300	-0.671002	-0.229891	0.901507	-0.444451	-0.216170	0.918102	-0.700208	-0.315292	0.888914	-0.508683	-0.312019	0.900770	-0.625599	-0.318346	0.902670	-0.567232	-0.231943	0.669916	-0.409657	-0.216012	0.610264	-0.409357	-0.148401	0.635649	-0.422770	-0.171836	0.691351	-0.421734	-0.234730	0.279535	-0.392842	-0.261726	0.245869	-0.396029	-0.210743	0.214506	-0.408103	-0.189060	0.248638	-0.408375	-0.397450	0.061555	-0.451210	-0.246828	0.029842	-0.374380	-0.210977	0.034110	-0.453414	-0.186146	0.026777	-0.442911	-0.250036	0.635446	-0.743184	-0.233615	0.578917	-0.738311	-0.164692	0.598952	-0.748119	-0.188784	0.654880	-0.753776	-0.275832	0.258399	-0.720777	-0.298719	0.226098	-0.712990	-0.243539	0.195552	-0.713735	-0.227222	0.235506	-0.722955	-0.398618	0.065191	-0.645162	-0.252739	0.026353	-0.724858	-0.211984	0.037232	-0.653585	-0.188496	0.026958	-0.664247	
